<?xml version="1.0" encoding="utf-8"?>
<!-- Generator: Adobe Illustrator 16.0.0, SVG Export Plug-In . SVG Version: 6.00 Build 0)  -->
<!DOCTYPE svg PUBLIC "-//W3C//DTD SVG 1.1//EN" "http://www.w3.org/Graphics/SVG/1.1/DTD/svg11.dtd">
<svg version="1.1" id="Layer_1" xmlns="http://www.w3.org/2000/svg" xmlns:xlink="http://www.w3.org/1999/xlink" x="0px" y="0px"
	 width="100px" height="100px" viewBox="0 0 100 100" enable-background="new 0 0 100 100" xml:space="preserve">
<g>
	<path d="M85.008,8.796c1,0,1.5,0.5,1.5,1.5v77.7c0,1-0.5,1.5-1.5,1.5h-16.6c-1,0-1.5-0.5-1.5-1.5v-36.6h-31.2v36.6
		c0,1-0.5,1.5-1.5,1.5h-16.6c-1,0-1.5-0.5-1.5-1.5v-77.7c0-1,0.5-1.5,1.5-1.5h16.6c1,0,1.5,0.5,1.5,1.5v36h31.2v-36
		c0-1,0.5-1.5,1.5-1.5H85.008z"/>
</g>
</svg>
