<?xml version="1.0" encoding="utf-8"?>
<!-- Generator: Adobe Illustrator 16.0.0, SVG Export Plug-In . SVG Version: 6.00 Build 0)  -->
<!DOCTYPE svg PUBLIC "-//W3C//DTD SVG 1.1//EN" "http://www.w3.org/Graphics/SVG/1.1/DTD/svg11.dtd">
<svg version="1.1" xmlns="http://www.w3.org/2000/svg" xmlns:xlink="http://www.w3.org/1999/xlink" x="0px" y="0px" width="100px"
	 height="100px" viewBox="0 0 100 100" style="enable-background:new 0 0 100 100;" xml:space="preserve">
<style type="text/css">
<![CDATA[
	.st0{display:inline;opacity:0.8;fill:#ED0F0F;}
	.st1{display:inline;fill:#1A2533;}
	.st2{display:inline;fill:#EAEA47;}
	.st3{display:inline;fill:#EDE658;}
	.st4{display:inline;fill:#267999;}
	.st5{display:inline;fill:#282827;}
	.st6{fill:none;stroke:#C61724;stroke-miterlimit:10;}
	.st7{opacity:0.8;fill:#CC87CC;}
	.st8{display:inline;fill:none;stroke:#353533;stroke-width:0.5;stroke-miterlimit:10;}
	.st9{fill:#F4E158;}
	.st10{display:inline;opacity:0.8;fill:#CC87CC;}
	.st11{fill:#282827;}
	.st12{display:inline;fill:#FFFFFF;}
	.st13{fill:#2A4163;}
	.st14{fill:#CBE2EF;}
	.st15{display:inline;}
	.st16{display:inline;fill:#6D91E2;}
	.st17{fill:#9FCEE2;}
	.st18{display:inline;fill:none;stroke:#282827;stroke-miterlimit:10;}
	.st19{display:inline;fill:#D1C70F;}
	.st20{display:inline;fill:#0A0572;}
	.st21{display:none;}
]]>
</style>
<g id="Layer_1">
	<g>
		<circle class="st9" cx="50.144" cy="48.923" r="31.727"/>
		<path class="st11" d="M47.662,42.15c0,1.928-1.204,3.491-2.688,3.491c-1.489,0-2.696-1.563-2.696-3.491
			c0-1.929,1.208-3.494,2.696-3.494C46.458,38.657,47.662,40.222,47.662,42.15z"/>
		<path class="st11" d="M59.109,42.15c0,1.928-1.208,3.491-2.696,3.491c-1.484,0-2.696-1.563-2.696-3.491
			c0-1.929,1.212-3.494,2.696-3.494C57.901,38.657,59.109,40.222,59.109,42.15z"/>
		<path class="st7" d="M39.964,52.642c0,4.529-3.666,8.195-8.192,8.195c-4.529,0-8.195-3.666-8.195-8.195
			c0-4.527,3.666-8.196,8.195-8.196C36.298,44.445,39.964,48.115,39.964,52.642z"/>
		<path class="st7" d="M75.687,52.642c0,4.529-3.67,8.195-8.196,8.195c-4.527,0-8.2-3.666-8.2-8.195c0-4.527,3.673-8.196,8.2-8.196
			C72.017,44.445,75.687,48.115,75.687,52.642z"/>
		<path class="st6" d="M37.78,48.613c0,0,0.398,13.154,12.569,13.354c7.091,0.118,12.945-6.624,13.17-13.354"/>
		<path class="st9" d="M52.977,12.385c0,1.285-1.042,2.33-2.33,2.33l0,0c-1.286,0-2.329-1.045-2.329-2.33V5.27
			c0-1.287,1.043-2.329,2.329-2.329l0,0c1.288,0,2.33,1.042,2.33,2.329V12.385z"/>
		<path class="st9" d="M34.327,15.865c0.648,1.113,0.262,2.537-0.853,3.18l0,0c-1.111,0.642-2.54,0.262-3.182-0.851l-3.554-6.165
			c-0.647-1.113-0.261-2.537,0.854-3.18l0,0c1.11-0.642,2.539-0.26,3.179,0.851L34.327,15.865z"/>
		<path class="st9" d="M19.918,28.202c1.116,0.643,1.492,2.066,0.854,3.18l0,0c-0.645,1.115-2.069,1.499-3.183,0.854l-6.165-3.557
			c-1.11-0.642-1.493-2.068-0.849-3.183l0,0c0.64-1.113,2.068-1.495,3.182-0.853L19.918,28.202z"/>
		<path class="st9" d="M13.32,46.284c1.283,0,2.321,1.044,2.321,2.33l0,0c0.004,1.286-1.039,2.328-2.325,2.328H6.201
			c-1.283,0-2.325-1.042-2.329-2.328l0,0c0-1.285,1.042-2.33,2.329-2.33H13.32z"/>
		<path class="st9" d="M17.086,64.738c1.114-0.643,2.539-0.259,3.178,0.854l0,0c0.647,1.114,0.265,2.537-0.849,3.182l-6.16,3.554
			c-1.119,0.645-2.54,0.264-3.183-0.851l0,0c-0.648-1.109-0.262-2.537,0.853-3.184L17.086,64.738z"/>
		<path class="st9" d="M30.359,81.815c0.644-1.118,2.068-1.494,3.183-0.853l0,0c1.114,0.645,1.498,2.067,0.853,3.18l-3.557,6.165
			c-0.648,1.109-2.069,1.497-3.183,0.853l0,0c-1.115-0.645-1.493-2.07-0.853-3.188L30.359,81.815z"/>
		<path class="st9" d="M47.814,87.913c0-1.284,1.046-2.331,2.331-2.331l0,0c1.282,0,2.33,1.047,2.33,2.331v7.112
			c0,1.284-1.048,2.331-2.33,2.331l0,0c-1.284,0.009-2.331-1.038-2.331-2.331V87.913z"/>
		<path class="st9" d="M66.894,84.646c-0.64-1.116-0.252-2.535,0.854-3.18l0,0c1.118-0.644,2.546-0.261,3.183,0.854l3.557,6.16
			c0.645,1.112,0.262,2.535-0.85,3.18l0,0c-1.11,0.642-2.539,0.265-3.183-0.855L66.894,84.646z"/>
		<path class="st9" d="M80.37,69.642c-1.114-0.64-1.494-2.063-0.854-3.179l0,0c0.648-1.112,2.073-1.497,3.184-0.852l6.159,3.557
			c1.111,0.64,1.493,2.065,0.858,3.182l0,0c-0.645,1.115-2.073,1.497-3.184,0.851L80.37,69.642z"/>
		<path class="st9" d="M86.679,51.754c-1.283,0.002-2.321-1.041-2.325-2.329l0,0c0-1.287,1.046-2.331,2.329-2.327H93.8
			c1.275-0.004,2.323,1.04,2.327,2.328l0,0c0,1.287-1.043,2.33-2.334,2.33L86.679,51.754z"/>
		<path class="st9" d="M83.202,33.106c-1.113,0.647-2.535,0.26-3.183-0.853l0,0c-0.64-1.115-0.258-2.541,0.853-3.181l6.164-3.557
			c1.111-0.642,2.535-0.259,3.184,0.853l0,0c0.644,1.112,0.254,2.539-0.853,3.183L83.202,33.106z"/>
		<path class="st9" d="M70.866,18.698c-0.645,1.115-2.064,1.49-3.184,0.853l0,0c-1.114-0.646-1.496-2.074-0.853-3.183l3.562-6.162
			c0.639-1.112,2.063-1.492,3.178-0.851l0,0c1.115,0.642,1.497,2.068,0.853,3.182L70.866,18.698z"/>
	</g>
</g>
<g id="Layer_6" class="st21">
	<circle class="st2" cx="63.323" cy="33.826" r="13.128"/>
	<polygon class="st2" points="49.36,37.065 50.389,39.152 52.691,39.486 51.025,41.11 51.418,43.403 49.36,42.321 47.3,43.403 
		47.694,41.11 46.028,39.486 48.33,39.152 	"/>
	<polygon class="st2" points="43.716,30.781 44.302,33.821 47.139,35.063 44.427,36.56 44.123,39.641 41.862,37.525 38.837,38.188 
		40.151,35.384 38.585,32.712 41.658,33.095 	"/>
	<polygon class="st2" points="36.832,38.033 37.786,39.967 39.92,40.277 38.376,41.782 38.74,43.908 36.832,42.904 34.923,43.908 
		35.287,41.782 33.743,40.277 35.877,39.967 	"/>
</g>
<g id="Layer_5" class="st21">
	<g class="st15">
		<circle class="st13" cx="20.263" cy="47.772" r="14.971"/>
		<circle class="st13" cx="29.279" cy="27.148" r="14.971"/>
		<path class="st13" d="M68.688,21.55c0,8.269-6.699,14.966-14.972,14.966c-8.267,0-14.968-6.697-14.968-14.966
			c0-8.268,6.701-14.971,14.968-14.971C61.989,6.58,68.688,13.283,68.688,21.55z"/>
		<path class="st13" d="M89.24,30.063c0,8.269-6.704,14.967-14.972,14.967c-8.27,0-14.969-6.698-14.969-14.967
			c0-8.267,6.699-14.968,14.969-14.968C82.536,15.095,89.24,21.797,89.24,30.063z"/>
		<ellipse class="st13" cx="83.659" cy="48.61" rx="13.715" ry="14.132"/>
		<path class="st13" d="M89.24,52.533c0,5.639-3.748,10.209-8.375,10.209H22.684c-4.625,0-8.375-4.57-8.375-10.209V39.012
			c0-5.637,3.75-10.206,8.375-10.206h58.182c4.627,0,8.375,4.569,8.375,10.206V52.533z"/>
	</g>
	<path class="st5" d="M49.223,32.802c0,1.832-1.113,3.314-2.485,3.314c-1.37,0-2.487-1.482-2.487-3.314
		c0-1.828,1.117-3.313,2.487-3.313C48.109,29.489,49.223,30.974,49.223,32.802z"/>
	<path class="st5" d="M58.691,32.802c0,1.832-1.113,3.314-2.488,3.314c-1.366,0-2.486-1.482-2.486-3.314
		c0-1.828,1.12-3.313,2.486-3.313C57.578,29.489,58.691,30.974,58.691,32.802z"/>
	<path class="st0" d="M45.503,40.216c0,3.732-3.023,6.753-6.752,6.753s-6.755-3.021-6.755-6.753c0-3.729,3.026-6.752,6.755-6.752
		S45.503,36.487,45.503,40.216z"/>
	<path class="st0" d="M70.558,40.217c0,3.733-3.025,6.754-6.754,6.754c-3.725,0-6.752-3.021-6.752-6.754
		c0-3.73,3.027-6.753,6.752-6.753C67.532,33.464,70.558,36.487,70.558,40.217z"/>
	<path class="st18" d="M43.555,41.135c4.067-4.352,10.879-4.581,15.231-0.514"/>
</g>
<g id="Layer_9" class="st21">
	<path class="st1" d="M84.143,70.383c0,1.471-1.587,2.666-3.542,2.666H28.466c-1.956,0-3.542-1.195-3.542-2.666l0,0
		c0-1.473,1.586-2.666,3.542-2.666h52.134C82.556,67.717,84.143,68.91,84.143,70.383L84.143,70.383z"/>
	<path class="st1" d="M73.906,78c0,1.471-1.586,2.664-3.542,2.664H18.23c-1.956,0-3.541-1.193-3.541-2.664l0,0
		c0-1.473,1.585-2.668,3.541-2.668h52.134C72.32,75.332,73.906,76.527,73.906,78L73.906,78z"/>
	<path class="st1" d="M88.743,85.617c0,1.469-1.586,2.664-3.542,2.664H33.067c-1.956,0-3.542-1.195-3.542-2.664l0,0
		c0-1.473,1.586-2.668,3.542-2.668h52.134C87.157,82.949,88.743,84.145,88.743,85.617L88.743,85.617z"/>
</g>
<g id="Layer_8" class="st21">
	<polygon class="st19" points="37.5,59.164 41.311,59.164 40.057,66.33 43.532,66.33 40.563,71.664 40.079,66.997 36.084,67 	"/>
	<polygon class="st19" points="46.978,56.497 50.229,56.497 49.159,62.611 52.125,62.611 49.591,67.163 49.178,63.181 
		45.769,63.184 	"/>
	<polygon class="st19" points="56.141,59.164 59.392,59.164 58.322,65.278 61.287,65.278 58.754,69.83 58.341,65.848 54.932,65.851 
			"/>
</g>
<g id="Layer_7" class="st21">
	<path class="st4" d="M38.769,65.361c0,1.311-0.617,2.371-1.379,2.371s-1.379-1.061-1.379-2.371s1.379-2.371,1.379-2.371
		S38.769,64.051,38.769,65.361z"/>
	<path class="st4" d="M44.137,63.861c0,1.311-0.617,2.371-1.379,2.371s-1.379-1.061-1.379-2.371s1.379-2.371,1.379-2.371
		S44.137,62.551,44.137,63.861z"/>
	<path class="st4" d="M41.527,70.861c0,1.311-0.617,2.371-1.379,2.371s-1.379-1.061-1.379-2.371s1.379-2.371,1.379-2.371
		S41.527,69.551,41.527,70.861z"/>
	<path class="st4" d="M46.762,70.104c0,1.311-0.617,2.373-1.379,2.373s-1.379-1.063-1.379-2.373c0-1.309,1.379-2.371,1.379-2.371
		S46.762,68.795,46.762,70.104z"/>
	<path class="st4" d="M52.633,70.861c0,1.311-0.617,2.371-1.379,2.371c-0.761,0-1.378-1.061-1.378-2.371s1.378-2.371,1.378-2.371
		S52.633,69.551,52.633,70.861z"/>
	<path class="st4" d="M57.125,70.104c0,1.311-0.617,2.373-1.379,2.373s-1.379-1.063-1.379-2.373c0-1.309,1.379-2.371,1.379-2.371
		S57.125,68.795,57.125,70.104z"/>
	<path class="st4" d="M49.625,64.445c0,1.311-0.617,2.371-1.379,2.371s-1.379-1.061-1.379-2.371s1.379-2.371,1.379-2.371
		S49.625,63.135,49.625,64.445z"/>
	<path class="st4" d="M55.279,63.861c0,1.311-0.617,2.371-1.379,2.371s-1.379-1.061-1.379-2.371S53.9,61.49,53.9,61.49
		S55.279,62.551,55.279,63.861z"/>
	<path class="st4" d="M60.764,64.943c0,1.311-0.617,2.373-1.379,2.373s-1.379-1.063-1.379-2.373c0-1.309,1.379-2.371,1.379-2.371
		S60.764,63.635,60.764,64.943z"/>
</g>
<g id="Layer_2" class="st21">
	<g class="st15">
		<path class="st17" d="M34.505,47.457c0,7.918-6.417,14.333-14.332,14.333c-7.915,0-14.331-6.414-14.331-14.333
			c0-7.916,6.417-14.329,14.331-14.329C28.089,33.127,34.505,39.541,34.505,47.457z"/>
		<circle class="st17" cx="28.805" cy="27.712" r="14.331"/>
		<path class="st17" d="M66.533,22.354c0,7.918-6.417,14.328-14.332,14.328c-7.916,0-14.331-6.41-14.331-14.328
			c0-7.913,6.415-14.33,14.331-14.33C60.116,8.023,66.533,14.44,66.533,22.354z"/>
		<path class="st17" d="M86.204,30.503c0,7.917-6.415,14.329-14.33,14.329c-7.916,0-14.331-6.412-14.331-14.329
			c0-7.911,6.415-14.328,14.331-14.328C79.789,16.175,86.204,22.592,86.204,30.503z"/>
		<ellipse class="st17" cx="80.863" cy="48.259" rx="13.128" ry="13.53"/>
		<path class="st17" d="M86.204,52.02c0,5.395-3.588,9.77-8.017,9.77H22.491c-4.428,0-8.017-4.375-8.017-9.77V39.072
			c0-5.396,3.589-9.771,8.017-9.771h55.696c4.429,0,8.017,4.375,8.017,9.771V52.02z"/>
	</g>
	<path class="st5" d="M47.896,33.127c0,1.754-1.065,3.172-2.38,3.172c-1.311,0-2.38-1.418-2.38-3.172c0-1.75,1.07-3.173,2.38-3.173
		C46.831,29.955,47.896,31.377,47.896,33.127z"/>
	<path class="st5" d="M56.962,33.127c0,1.754-1.065,3.172-2.381,3.172c-1.31,0-2.38-1.418-2.38-3.172c0-1.75,1.07-3.173,2.38-3.173
		C55.896,29.955,56.962,31.377,56.962,33.127z"/>
	<path class="st10" d="M44.335,40.224c0,3.572-2.894,6.462-6.464,6.462c-3.569,0-6.466-2.89-6.466-6.462
		c0-3.57,2.897-6.464,6.466-6.464C41.441,33.76,44.335,36.654,44.335,40.224z"/>
	<path class="st10" d="M68.319,40.224c0,3.572-2.895,6.462-6.463,6.462s-6.466-2.89-6.466-6.462c0-3.57,2.897-6.464,6.466-6.464
		S68.319,36.654,68.319,40.224z"/>
	<path class="st18" d="M41.707,39.018h18.647c0,0-2.806,6.949-9.323,7.083C51.03,46.101,41.707,45.298,41.707,39.018z"/>
</g>
<g id="Layer_4" class="st21">
	<g class="st15">
		<rect x="41.231" y="54.227" class="st14" width="0.449" height="4.466"/>
		
			<rect x="40.421" y="54.668" transform="matrix(0.7153 -0.6988 0.6988 0.7153 -27.5057 44.2993)" class="st14" width="0.386" height="2.477"/>
		
			<rect x="42.042" y="54.668" transform="matrix(-0.7159 -0.6982 0.6982 -0.7159 33.4374 125.4181)" class="st14" width="0.386" height="2.476"/>
		
			<rect x="39.41" y="55.058" transform="matrix(0.5002 -0.8659 0.8659 0.5002 -29.7992 62.9529)" class="st14" width="0.45" height="4.466"/>
		
			<rect x="38.543" y="56.505" transform="matrix(-0.2485 -0.9686 0.9686 -0.2485 -7.5714 109.6131)" class="st14" width="0.385" height="2.477"/>
		
			<rect x="39.352" y="55.102" transform="matrix(-0.9628 0.2701 -0.2701 -0.9628 92.8373 99.908)" class="st14" width="0.387" height="2.477"/>
		
			<rect x="39.216" y="57.291" transform="matrix(-0.4986 -0.8668 0.8668 -0.4986 7.5085 123.39)" class="st14" width="0.45" height="4.465"/>
		
			<rect x="39.16" y="59.291" transform="matrix(-0.9633 -0.2684 0.2684 -0.9633 61.0183 129.399)" class="st14" width="0.386" height="2.477"/>
		
			<rect x="38.349" y="57.887" transform="matrix(-0.2491 0.9685 -0.9685 -0.2491 105.4045 36.5244)" class="st14" width="0.386" height="2.477"/>
		<rect x="41.261" y="58.602" class="st14" width="0.449" height="4.465"/>
		
			<rect x="42.042" y="60.238" transform="matrix(-0.7153 0.6988 -0.6988 -0.7153 115.4065 75.936)" class="st14" width="0.386" height="2.477"/>
		
			<rect x="40.422" y="60.238" transform="matrix(0.7165 0.6976 -0.6976 0.7165 54.3976 -10.9046)" class="st14" width="0.386" height="2.476"/>
		
			<rect x="43.307" y="57.278" transform="matrix(-0.5029 0.8643 -0.8643 -0.5029 116.8611 51.8137)" class="st14" width="0.449" height="4.465"/>
		
			<rect x="44.24" y="57.818" transform="matrix(0.2491 0.9685 -0.9685 0.2491 90.5587 1.3145)" class="st14" width="0.384" height="2.477"/>
		
			<rect x="43.428" y="59.223" transform="matrix(0.9628 -0.2704 0.2704 0.9628 -14.7227 14.0463)" class="st14" width="0.386" height="2.476"/>
		
			<rect x="43.3" y="54.911" transform="matrix(0.4978 0.8673 -0.8673 0.4978 71.4204 -9.0501)" class="st14" width="0.449" height="4.466"/>
		
			<rect x="43.39" y="54.899" transform="matrix(0.9631 0.269 -0.269 0.9631 16.7087 -9.655)" class="st14" width="0.385" height="2.477"/>
		
			<rect x="44.2" y="56.303" transform="matrix(0.2485 -0.9686 0.9686 0.2485 -22.3735 86.2452)" class="st14" width="0.387" height="2.477"/>
	</g>
	<g class="st15">
		<rect x="51.631" y="62.163" class="st14" width="0.318" height="3.172"/>
		
			<rect x="51.055" y="62.476" transform="matrix(0.7142 -0.6999 0.6999 0.7142 -29.7147 53.9368)" class="st14" width="0.273" height="1.76"/>
		
			<rect x="52.207" y="62.476" transform="matrix(-0.7142 -0.6999 0.6999 -0.7142 45.3837 145.2425)" class="st14" width="0.273" height="1.76"/>
		
			<rect x="50.337" y="62.753" transform="matrix(0.4978 -0.8673 0.8673 0.4978 -30.4411 76.1086)" class="st14" width="0.32" height="3.172"/>
		
			<rect x="49.721" y="63.781" transform="matrix(-0.2484 -0.9687 0.9687 -0.2484 -0.391 129.0189)" class="st14" width="0.273" height="1.76"/>
		
			<rect x="50.296" y="62.785" transform="matrix(-0.9629 0.27 -0.27 -0.9629 116.1842 111.3449)" class="st14" width="0.275" height="1.759"/>
		
			<rect x="50.199" y="64.34" transform="matrix(-0.4978 -0.8673 0.8673 -0.4978 18.2496 142.4172)" class="st14" width="0.32" height="3.171"/>
		
			<rect x="50.16" y="65.76" transform="matrix(-0.9635 -0.2676 0.2676 -0.9635 80.9222 144.3097)" class="st14" width="0.274" height="1.76"/>
		
			<rect x="49.583" y="64.763" transform="matrix(-0.2492 0.9684 -0.9684 -0.2492 125.6835 33.8513)" class="st14" width="0.274" height="1.759"/>
		<rect x="51.652" y="65.271" class="st14" width="0.318" height="3.171"/>
		
			<rect x="52.207" y="66.433" transform="matrix(-0.7142 0.6999 -0.6999 -0.7142 136.8426 78.7519)" class="st14" width="0.273" height="1.76"/>
		
			<rect x="51.056" y="66.433" transform="matrix(0.7177 0.6964 -0.6964 0.7177 61.3268 -16.6459)" class="st14" width="0.275" height="1.759"/>
		
			<rect x="53.105" y="64.33" transform="matrix(-0.5027 0.8644 -0.8644 -0.5027 137.023 53.0094)" class="st14" width="0.319" height="3.173"/>
		
			<rect x="53.768" y="64.714" transform="matrix(0.251 0.968 -0.968 0.251 103.8709 -3.047)" class="st14" width="0.272" height="1.76"/>
		
			<rect x="53.191" y="65.712" transform="matrix(0.9626 -0.271 0.271 0.9626 -16.0481 16.9403)" class="st14" width="0.274" height="1.759"/>
		
			<rect x="53.1" y="62.649" transform="matrix(0.4968 0.8679 -0.8679 0.4968 82.5471 -13.8984)" class="st14" width="0.318" height="3.171"/>
		
			<rect x="53.164" y="62.641" transform="matrix(0.9626 0.271 -0.271 0.9626 19.2048 -12.0658)" class="st14" width="0.274" height="1.759"/>
		
			<rect x="53.738" y="63.638" transform="matrix(0.2484 -0.9687 0.9687 0.2484 -22.0009 100.6803)" class="st14" width="0.275" height="1.758"/>
	</g>
	<g class="st15">
		<rect x="37.138" y="63.573" class="st14" width="0.276" height="2.738"/>
		
			<rect x="36.641" y="63.843" transform="matrix(0.7133 -0.7009 0.7009 0.7133 -34.7396 44.2888)" class="st14" width="0.237" height="1.519"/>
		
			<rect x="37.635" y="63.844" transform="matrix(-0.7143 -0.6999 0.6999 -0.7143 19.5063 137.1696)" class="st14" width="0.237" height="1.519"/>
		
			<rect x="36.022" y="64.083" transform="matrix(0.4988 -0.8667 0.8667 0.4988 -38.6051 64.1447)" class="st14" width="0.276" height="2.739"/>
		
			<rect x="35.49" y="64.97" transform="matrix(-0.2484 -0.9687 0.9687 -0.2484 -19.2177 116.5472)" class="st14" width="0.236" height="1.519"/>
		
			<rect x="35.986" y="64.11" transform="matrix(-0.9635 0.2676 -0.2676 -0.9635 88.2546 117.7084)" class="st14" width="0.237" height="1.518"/>
		
			<rect x="35.903" y="65.452" transform="matrix(-0.4988 -0.8667 0.8667 -0.4988 -3.8969 131.3881)" class="st14" width="0.276" height="2.737"/>
		
			<rect x="35.869" y="66.678" transform="matrix(-0.9632 -0.2687 0.2687 -0.9632 52.5288 142.0657)" class="st14" width="0.236" height="1.519"/>
		
			<rect x="35.371" y="65.818" transform="matrix(-0.2493 0.9684 -0.9684 -0.2493 108.8124 48.8072)" class="st14" width="0.237" height="1.519"/>
		<rect x="37.156" y="66.256" class="st14" width="0.275" height="2.737"/>
		
			<rect x="37.635" y="67.26" transform="matrix(-0.7163 0.6978 -0.6978 -0.7163 112.2582 90.4008)" class="st14" width="0.237" height="1.518"/>
		
			<rect x="36.642" y="67.26" transform="matrix(0.7173 0.6967 -0.6967 0.7173 57.7814 -6.3856)" class="st14" width="0.237" height="1.518"/>
		
			<rect x="38.412" y="65.444" transform="matrix(-0.5032 0.8642 -0.8642 -0.5032 115.6847 67.121)" class="st14" width="0.275" height="2.738"/>
		
			<rect x="38.983" y="65.776" transform="matrix(0.2494 0.9684 -0.9684 0.2494 93.783 12.0777)" class="st14" width="0.235" height="1.519"/>
		
			<rect x="38.486" y="66.637" transform="matrix(0.9623 -0.272 0.272 0.9623 -16.876 13.0412)" class="st14" width="0.237" height="1.517"/>
		
			<rect x="38.407" y="63.993" transform="matrix(0.4988 0.8667 -0.8667 0.4988 75.9685 -0.6481)" class="st14" width="0.276" height="2.738"/>
		
			<rect x="38.462" y="63.986" transform="matrix(0.9632 0.2687 -0.2687 0.9632 18.8166 -7.9857)" class="st14" width="0.236" height="1.518"/>
		
			<rect x="38.959" y="64.846" transform="matrix(0.2493 -0.9684 0.9684 0.2493 -34.1992 87.0921)" class="st14" width="0.237" height="1.518"/>
	</g>
	<g class="st15">
		<rect x="57.637" y="54.262" class="st14" width="0.283" height="2.813"/>
		
			<rect x="57.127" y="54.539" transform="matrix(0.7151 -0.699 0.699 0.7151 -22.3598 55.7787)" class="st14" width="0.243" height="1.561"/>
		
			<rect x="58.148" y="54.539" transform="matrix(-0.7151 -0.699 0.699 -0.7151 61.2678 135.6107)" class="st14" width="0.243" height="1.561"/>
		
			<rect x="56.49" y="54.785" transform="matrix(0.4976 -0.8674 0.8674 0.4976 -20.291 77.3507)" class="st14" width="0.283" height="2.815"/>
		
			<rect x="55.943" y="55.697" transform="matrix(-0.2491 -0.9685 0.9685 -0.2491 15.3363 124.8453)" class="st14" width="0.243" height="1.562"/>
		
			<rect x="56.452" y="54.814" transform="matrix(-0.9627 0.2705 -0.2705 -0.9627 126.08 93.8103)" class="st14" width="0.245" height="1.56"/>
		
			<rect x="56.367" y="56.193" transform="matrix(-0.4976 -0.8674 0.8674 -0.4976 34.6681 135.2772)" class="st14" width="0.283" height="2.812"/>
		
			<rect x="56.331" y="57.453" transform="matrix(-0.9632 -0.2689 0.2689 -0.9632 95.1692 129.5007)" class="st14" width="0.243" height="1.56"/>
		
			<rect x="55.821" y="56.568" transform="matrix(-0.2491 0.9685 -0.9685 -0.2491 125.42 17.4581)" class="st14" width="0.243" height="1.56"/>
		<rect x="57.656" y="57.018" class="st14" width="0.283" height="2.813"/>
		
			<rect x="58.147" y="58.05" transform="matrix(-0.7151 0.699 -0.699 -0.7151 141.0599 60.168)" class="st14" width="0.243" height="1.561"/>
		
			<rect x="57.127" y="58.05" transform="matrix(0.7151 0.699 -0.699 0.7151 57.4339 -23.2578)" class="st14" width="0.243" height="1.56"/>
		
			<rect x="58.945" y="56.185" transform="matrix(-0.5043 0.8635 -0.8635 -0.5043 138.6143 35.6115)" class="st14" width="0.283" height="2.812"/>
		
			<rect x="59.532" y="56.525" transform="matrix(0.2501 0.9682 -0.9682 0.2501 100.2164 -14.7853)" class="st14" width="0.242" height="1.56"/>
		
			<rect x="59.021" y="57.41" transform="matrix(0.9637 -0.2668 0.2668 0.9637 -13.3822 17.8904)" class="st14" width="0.245" height="1.56"/>
		
			<rect x="58.941" y="54.692" transform="matrix(0.4976 0.8674 -0.8674 0.4976 78.3415 -23.0643)" class="st14" width="0.283" height="2.815"/>
		
			<rect x="58.997" y="54.685" transform="matrix(0.9626 0.271 -0.271 0.9626 17.242 -13.9446)" class="st14" width="0.241" height="1.561"/>
		
			<rect x="59.508" y="55.57" transform="matrix(0.2482 -0.9687 0.9687 0.2482 -9.7563 100.1292)" class="st14" width="0.244" height="1.56"/>
	</g>
	<g class="st15">
		<rect x="62.369" y="61.973" class="st14" width="0.186" height="1.771"/>
		<polygon class="st14" points="62.527,62.937 62.414,63.044 61.701,62.341 61.814,62.234 		"/>
		<polygon class="st14" points="62.369,62.937 62.482,63.044 63.195,62.341 63.082,62.234 		"/>
		<polygon class="st14" points="62.555,63.555 62.461,63.709 60.869,62.822 60.961,62.669 		"/>
		<polygon class="st14" points="61.814,63.173 61.855,63.32 60.865,63.563 60.826,63.416 		"/>
		<polygon class="st14" points="61.736,63.306 61.889,63.264 61.613,62.317 61.461,62.358 		"/>
		<polygon class="st14" points="62.381,63.555 62.473,63.709 60.881,64.595 60.787,64.439 		"/>
		<polygon class="st14" points="61.656,63.979 61.809,64.021 61.533,64.967 61.381,64.926 		"/>
		
			<rect x="61.185" y="63.408" transform="matrix(-0.2545 0.9671 -0.9671 -0.2545 138.6644 20.9382)" class="st14" width="0.153" height="1.018"/>
		<rect x="62.381" y="63.708" class="st14" width="0.186" height="1.771"/>
		<polygon class="st14" points="62.369,64.551 62.482,64.444 63.195,65.147 63.082,65.254 		"/>
		<polygon class="st14" points="62.529,64.551 62.414,64.444 61.701,65.147 61.814,65.254 		"/>
		<polygon class="st14" points="62.473,63.703 62.566,63.55 64.16,64.435 64.066,64.59 		"/>
		<polygon class="st14" points="63.213,64.085 63.172,63.937 64.162,63.694 64.201,63.842 		"/>
		<polygon class="st14" points="63.293,63.953 63.139,63.994 63.414,64.939 63.568,64.898 		"/>
		<polygon class="st14" points="62.563,63.65 62.471,63.496 64.064,62.609 64.156,62.765 		"/>
		<polygon class="st14" points="63.275,63.225 63.123,63.184 63.398,62.237 63.551,62.279 		"/>
		
			<rect x="63.595" y="62.779" transform="matrix(0.2529 -0.9675 0.9675 0.2529 -13.6627 108.8813)" class="st14" width="0.154" height="1.018"/>
	</g>
</g>
<g id="Layer_3" class="st21">
	<path class="st3" d="M37.466,28.712c-8.234,7.834-10.209,20.597-4.058,30.699c7.091,11.646,22.279,15.342,33.925,8.25
		c0.377-0.231,0.726-0.494,1.088-0.74c-0.209,0.143-1.536-0.321-1.816-0.377c-0.636-0.126-1.272-0.245-1.91-0.357
		c-1.243-0.218-2.492-0.404-3.735-0.618c-6.387-1.104-10.875-6.274-14.966-10.86C39.921,47.902,37.472,38.15,37.466,28.712z"/>
	<path class="st8" d="M33.012,46.217c1.248,0.472,2.608-0.076,3.043-1.225"/>
	<path class="st8" d="M36.978,44.861c1.248,0.472,2.608-0.075,3.042-1.225"/>
	<polygon class="st20" points="53.414,34.829 54.743,37.521 57.715,37.953 55.565,40.048 56.072,43.008 53.414,41.61 50.757,43.008 
		51.265,40.048 49.114,37.953 52.086,37.521 	"/>
	<polygon class="st20" points="63.232,47.686 63.996,49.237 65.71,49.485 64.47,50.693 64.763,52.396 63.232,51.592 61.7,52.396 
		61.992,50.693 60.755,49.485 62.466,49.237 	"/>
	<polygon class="st20" points="53.414,51.532 54.458,53.644 56.787,53.98 55.101,55.625 55.499,57.946 53.414,56.849 51.331,57.946 
		51.729,55.625 50.042,53.98 52.373,53.644 	"/>
	<path class="st16" d="M32.37,35.644c0,0,4.993-0.006,5.492-0.503l-0.396-6.428C37.466,28.712,32.9,32.793,32.37,35.644z"/>
	<circle class="st16" cx="37.615" cy="28.392" r="0.885"/>
	<polygon class="st12" points="37.576,30.496 35.703,30.462 36.158,29.983 37.545,29.997 	"/>
	<polygon class="st12" points="37.694,31.709 34.636,31.674 35.061,31.173 37.62,31.203 	"/>
	<polygon class="st12" points="37.737,33.109 33.428,33.3 33.783,32.778 37.706,32.604 	"/>
	<polygon class="st12" points="37.939,34.341 32.5,34.72 32.736,34.196 37.904,33.836 	"/>
	<path class="st8" d="M35.27,48.995c2.211,0.83,4.584-0.05,5.303-1.967"/>
</g>
</svg>
