<?xml version="1.0" encoding="utf-8"?>
<!-- Generator: Adobe Illustrator 16.0.0, SVG Export Plug-In . SVG Version: 6.00 Build 0)  -->
<!DOCTYPE svg PUBLIC "-//W3C//DTD SVG 1.1//EN" "http://www.w3.org/Graphics/SVG/1.1/DTD/svg11.dtd">
<svg version="1.1" xmlns="http://www.w3.org/2000/svg" xmlns:xlink="http://www.w3.org/1999/xlink" x="0px" y="0px" width="100px"
	 height="100px" viewBox="0 0 100 100" style="enable-background:new 0 0 100 100;" xml:space="preserve">
<style type="text/css">
<![CDATA[
	.st0{display:inline;fill:#E5EF0C;}
	.st1{display:inline;opacity:0.8;fill:#ED0F0F;}
	.st2{display:inline;fill:#E8D913;}
	.st3{display:inline;fill:#1A2533;}
	.st4{display:inline;fill:#EAEA47;}
	.st5{display:inline;fill:none;stroke:#0A0A0A;stroke-miterlimit:10;}
	.st6{display:inline;fill:#267999;}
	.st7{display:inline;fill:#282827;}
	.st8{fill:none;stroke:#C61724;stroke-miterlimit:10;}
	.st9{opacity:0.8;fill:#CC87CC;}
	.st10{display:inline;fill:none;stroke:#353533;stroke-width:0.5;stroke-miterlimit:10;}
	.st11{fill:#F4E158;}
	.st12{display:inline;opacity:0.8;fill:#CC87CC;}
	.st13{fill:#282827;}
	.st14{display:inline;fill:#FFFFFF;}
	.st15{fill:#2A4163;}
	.st16{fill:none;stroke:#0A0A0A;stroke-miterlimit:10;}
	.st17{fill:#66797F;}
	.st18{fill:#CAE0E8;}
	.st19{fill:#CBE2EF;}
	.st20{display:inline;}
	.st21{display:inline;fill:#6D91E2;}
	.st22{fill:#9FCEE2;}
	.st23{display:inline;fill:none;stroke:#282827;stroke-miterlimit:10;}
	.st24{display:inline;fill:#D1C70F;}
	.st25{display:none;}
	.st26{display:inline;fill:none;stroke:#C61724;stroke-miterlimit:10;}
	.st27{fill:#454849;}
]]>
</style>
<g id="_x30_1d" class="st25">
	<g class="st20">
		<circle class="st11" cx="50.144" cy="48.923" r="31.727"/>
		<path class="st13" d="M47.662,42.15c0,1.928-1.204,3.491-2.688,3.491c-1.489,0-2.696-1.563-2.696-3.491
			c0-1.929,1.208-3.494,2.696-3.494C46.458,38.657,47.662,40.222,47.662,42.15z"/>
		<path class="st13" d="M59.109,42.15c0,1.928-1.208,3.491-2.696,3.491c-1.484,0-2.696-1.563-2.696-3.491
			c0-1.929,1.212-3.494,2.696-3.494C57.901,38.657,59.109,40.222,59.109,42.15z"/>
		<path class="st9" d="M39.964,52.642c0,4.529-3.666,8.195-8.192,8.195c-4.529,0-8.195-3.666-8.195-8.195
			c0-4.527,3.666-8.196,8.195-8.196C36.298,44.445,39.964,48.115,39.964,52.642z"/>
		<path class="st9" d="M75.687,52.642c0,4.529-3.67,8.195-8.196,8.195c-4.527,0-8.2-3.666-8.2-8.195c0-4.527,3.673-8.196,8.2-8.196
			C72.017,44.445,75.687,48.115,75.687,52.642z"/>
		<path class="st8" d="M37.78,48.613c0,0,0.398,13.154,12.569,13.354c7.091,0.118,12.945-6.624,13.17-13.354"/>
		<path class="st11" d="M52.977,12.385c0,1.285-1.042,2.33-2.33,2.33l0,0c-1.286,0-2.329-1.045-2.329-2.33V5.27
			c0-1.287,1.043-2.329,2.329-2.329l0,0c1.288,0,2.33,1.042,2.33,2.329V12.385z"/>
		<path class="st11" d="M34.327,15.865c0.648,1.113,0.262,2.537-0.853,3.18l0,0c-1.111,0.642-2.54,0.262-3.182-0.851l-3.554-6.165
			c-0.647-1.113-0.261-2.537,0.854-3.18l0,0c1.11-0.642,2.539-0.26,3.179,0.851L34.327,15.865z"/>
		<path class="st11" d="M19.918,28.202c1.116,0.643,1.492,2.066,0.854,3.18l0,0c-0.645,1.115-2.069,1.499-3.183,0.854l-6.165-3.557
			c-1.11-0.642-1.493-2.068-0.849-3.183l0,0c0.64-1.113,2.068-1.495,3.182-0.853L19.918,28.202z"/>
		<path class="st11" d="M13.32,46.284c1.283,0,2.321,1.044,2.321,2.33l0,0c0.004,1.286-1.039,2.328-2.325,2.328H6.201
			c-1.283,0-2.325-1.042-2.329-2.328l0,0c0-1.285,1.042-2.33,2.329-2.33H13.32z"/>
		<path class="st11" d="M17.086,64.738c1.114-0.643,2.539-0.259,3.178,0.854l0,0c0.647,1.114,0.265,2.537-0.849,3.182l-6.16,3.554
			c-1.119,0.645-2.54,0.264-3.183-0.851l0,0c-0.648-1.109-0.262-2.537,0.853-3.184L17.086,64.738z"/>
		<path class="st11" d="M30.359,81.815c0.644-1.118,2.068-1.494,3.183-0.853l0,0c1.114,0.645,1.498,2.067,0.853,3.18l-3.557,6.165
			c-0.648,1.109-2.069,1.497-3.183,0.853l0,0c-1.115-0.645-1.493-2.07-0.853-3.188L30.359,81.815z"/>
		<path class="st11" d="M47.814,87.913c0-1.284,1.046-2.331,2.331-2.331l0,0c1.282,0,2.33,1.047,2.33,2.331v7.112
			c0,1.284-1.048,2.331-2.33,2.331l0,0c-1.284,0.009-2.331-1.038-2.331-2.331V87.913z"/>
		<path class="st11" d="M66.894,84.646c-0.64-1.116-0.252-2.535,0.854-3.18l0,0c1.118-0.644,2.546-0.261,3.183,0.854l3.557,6.16
			c0.645,1.112,0.262,2.535-0.85,3.18l0,0c-1.11,0.642-2.539,0.265-3.183-0.855L66.894,84.646z"/>
		<path class="st11" d="M80.37,69.642c-1.114-0.64-1.494-2.063-0.854-3.179l0,0c0.648-1.112,2.073-1.497,3.184-0.852l6.159,3.557
			c1.111,0.64,1.493,2.065,0.858,3.182l0,0c-0.645,1.115-2.073,1.497-3.184,0.851L80.37,69.642z"/>
		<path class="st11" d="M86.679,51.754c-1.283,0.002-2.321-1.041-2.325-2.329l0,0c0-1.287,1.046-2.331,2.329-2.327H93.8
			c1.275-0.004,2.323,1.04,2.327,2.328l0,0c0,1.287-1.043,2.33-2.334,2.33L86.679,51.754z"/>
		<path class="st11" d="M83.202,33.106c-1.113,0.647-2.535,0.26-3.183-0.853l0,0c-0.64-1.115-0.258-2.541,0.853-3.181l6.164-3.557
			c1.111-0.642,2.535-0.259,3.184,0.853l0,0c0.644,1.112,0.254,2.539-0.853,3.183L83.202,33.106z"/>
		<path class="st11" d="M70.866,18.698c-0.645,1.115-2.064,1.49-3.184,0.853l0,0c-1.114-0.646-1.496-2.074-0.853-3.183l3.562-6.162
			c0.639-1.112,2.063-1.492,3.178-0.851l0,0c1.115,0.642,1.497,2.068,0.853,3.182L70.866,18.698z"/>
	</g>
</g>
<g id="_x30_2d" class="st25">
	<g class="st20">
		<circle class="st11" cx="76.087" cy="27.804" r="14.291"/>
		<ellipse class="st13" cx="73.756" cy="24.753" rx="1.213" ry="1.573"/>
		<ellipse class="st13" cx="78.91" cy="24.753" rx="1.214" ry="1.573"/>
		<circle class="st9" cx="67.811" cy="29.479" r="3.69"/>
		<circle class="st9" cx="83.899" cy="29.479" r="3.693"/>
		<path class="st8" d="M70.517,27.665c0,0,0.18,5.925,5.662,6.015c3.193,0.053,5.832-2.984,5.933-6.015"/>
		<path class="st11" d="M77.362,11.346c0,0.579-0.469,1.049-1.049,1.049l0,0c-0.58,0-1.05-0.471-1.05-1.049V8.141
			c0-0.58,0.47-1.049,1.05-1.049l0,0c0.58,0,1.049,0.469,1.049,1.049V11.346z"/>
		<path class="st11" d="M68.962,12.914c0.292,0.501,0.117,1.143-0.385,1.433l0,0c-0.5,0.289-1.144,0.118-1.433-0.383l-1.601-2.777
			c-0.292-0.501-0.118-1.143,0.384-1.433l0,0c0.5-0.289,1.144-0.117,1.433,0.383L68.962,12.914z"/>
		<path class="st11" d="M62.472,18.47c0.502,0.29,0.672,0.931,0.385,1.433l0,0c-0.291,0.502-0.932,0.675-1.434,0.384l-2.777-1.602
			c-0.5-0.289-0.672-0.932-0.383-1.434l0,0c0.289-0.501,0.932-0.673,1.434-0.384L62.472,18.47z"/>
		<path class="st11" d="M59.499,26.615c0.578,0,1.046,0.471,1.046,1.049l0,0c0.002,0.58-0.468,1.049-1.048,1.049h-3.204
			c-0.578,0-1.048-0.469-1.05-1.049l0,0c0-0.579,0.47-1.049,1.05-1.049H59.499z"/>
		<path class="st11" d="M61.196,34.928c0.502-0.29,1.143-0.117,1.432,0.385l0,0c0.291,0.502,0.119,1.143-0.383,1.433l-2.775,1.601
			c-0.504,0.291-1.144,0.119-1.434-0.383l0,0c-0.291-0.5-0.117-1.143,0.385-1.434L61.196,34.928z"/>
		<path class="st11" d="M67.175,42.62c0.29-0.503,0.932-0.673,1.434-0.384l0,0c0.502,0.29,0.675,0.932,0.385,1.432l-1.603,2.777
			c-0.292,0.5-0.932,0.675-1.434,0.385l0,0c-0.503-0.291-0.673-0.934-0.384-1.437L67.175,42.62z"/>
		<path class="st11" d="M75.037,45.367c0-0.578,0.472-1.051,1.05-1.051l0,0c0.578,0,1.049,0.473,1.049,1.051v3.203
			c0,0.578-0.471,1.051-1.049,1.051l0,0c-0.578,0.004-1.05-0.469-1.05-1.051V45.367z"/>
		<path class="st11" d="M83.632,43.895c-0.289-0.502-0.113-1.142,0.385-1.432l0,0c0.504-0.29,1.146-0.117,1.434,0.385l1.602,2.774
			c0.291,0.501,0.118,1.142-0.383,1.433l0,0c-0.5,0.289-1.144,0.119-1.434-0.386L83.632,43.895z"/>
		<path class="st11" d="M89.702,37.137c-0.502-0.288-0.674-0.93-0.385-1.432l0,0c0.292-0.501,0.934-0.675,1.434-0.384l2.774,1.602
			c0.501,0.288,0.673,0.93,0.388,1.433l0,0c-0.291,0.502-0.936,0.674-1.435,0.383L89.702,37.137z"/>
		<path class="st11" d="M92.544,29.079c-0.578,0.001-1.047-0.469-1.049-1.049l0,0c0-0.58,0.473-1.05,1.051-1.048h3.205
			c0.574-0.002,1.047,0.468,1.048,1.048l0,0c0,0.58-0.47,1.049-1.052,1.049L92.544,29.079z"/>
		<path class="st11" d="M90.978,20.679c-0.502,0.292-1.143,0.118-1.434-0.384l0,0c-0.288-0.502-0.117-1.145,0.385-1.433l2.775-1.602
			c0.501-0.289,1.143-0.117,1.435,0.384l0,0c0.29,0.501,0.114,1.144-0.385,1.434L90.978,20.679z"/>
		<path class="st11" d="M85.421,14.189c-0.291,0.502-0.93,0.671-1.434,0.384l0,0c-0.503-0.291-0.674-0.934-0.385-1.434l1.604-2.775
			c0.288-0.501,0.929-0.672,1.432-0.383l0,0c0.503,0.289,0.674,0.931,0.384,1.433L85.421,14.189z"/>
	</g>
	<g class="st20">
		<path class="st22" d="M32.773,67.699c0,8.852-7.172,16.021-16.02,16.021c-8.847,0-16.019-7.17-16.019-16.021
			c0-8.848,7.172-16.017,16.019-16.017C25.601,51.683,32.773,58.852,32.773,67.699z"/>
		<path class="st22" d="M42.42,45.63c0,8.851-7.171,16.019-16.019,16.019c-8.847,0-16.019-7.168-16.019-16.019
			c0-8.847,7.172-16.019,16.019-16.019C35.249,29.611,42.42,36.783,42.42,45.63z"/>
		<path class="st22" d="M68.573,39.64c0,8.851-7.173,16.017-16.02,16.017c-8.848,0-16.019-7.166-16.019-16.017
			c0-8.845,7.171-16.018,16.019-16.018C61.4,23.622,68.573,30.794,68.573,39.64z"/>
		<path class="st22" d="M90.562,48.749c0,8.849-7.171,16.017-16.019,16.017s-16.019-7.168-16.019-16.017
			c0-8.843,7.171-16.016,16.019-16.016S90.562,39.906,90.562,48.749z"/>
		<ellipse class="st22" cx="84.591" cy="68.598" rx="14.675" ry="15.123"/>
		<path class="st22" d="M90.562,72.801c0,6.029-4.011,10.92-8.961,10.92H19.344c-4.949,0-8.961-4.891-8.961-10.92V58.328
			c0-6.033,4.012-10.924,8.961-10.924h62.257c4.95,0,8.961,4.891,8.961,10.924V72.801z"/>
	</g>
</g>
<g id="_x30_3d" class="st25">
	<g class="st20">
		<circle class="st18" cx="49.256" cy="45.688" r="9.469"/>
		<circle class="st18" cx="54.959" cy="32.642" r="9.469"/>
		<path class="st18" d="M79.886,29.101c0,5.231-4.239,9.467-9.469,9.467s-9.469-4.235-9.469-9.467c0-5.229,4.239-9.468,9.469-9.468
			S79.886,23.873,79.886,29.101z"/>
		<circle class="st18" cx="83.414" cy="34.485" r="9.469"/>
		<ellipse class="st18" cx="89.354" cy="46.218" rx="8.674" ry="8.939"/>
		<path class="st18" d="M92.883,48.702c0,3.565-2.37,6.455-5.297,6.455H50.787c-2.926,0-5.297-2.89-5.297-6.455v-8.555
			c0-3.566,2.371-6.457,5.297-6.457h36.799c2.927,0,5.297,2.89,5.297,6.457V48.702z"/>
	</g>
	<g class="st20">
		<path class="st22" d="M33.432,76.15c0,8.771-7.107,15.875-15.875,15.875c-8.767,0-15.874-7.104-15.874-15.875
			c0-8.769,7.107-15.873,15.874-15.873C26.324,60.277,33.432,67.382,33.432,76.15z"/>
		<path class="st22" d="M42.992,54.279c0,8.771-7.107,15.874-15.874,15.874c-8.767,0-15.874-7.104-15.874-15.874
			c0-8.766,7.107-15.874,15.874-15.874C35.885,38.406,42.992,45.514,42.992,54.279z"/>
		<path class="st22" d="M68.907,48.344c0,8.771-7.107,15.87-15.874,15.87c-8.768,0-15.874-7.1-15.874-15.87
			c0-8.765,7.106-15.873,15.874-15.873C61.8,32.471,68.907,39.579,68.907,48.344z"/>
		<path class="st22" d="M90.696,57.37c0,8.77-7.106,15.872-15.873,15.872c-8.768,0-15.874-7.103-15.874-15.872
			c0-8.763,7.106-15.871,15.874-15.871C83.59,41.5,90.696,48.607,90.696,57.37z"/>
		<path class="st22" d="M99.322,77.04c0,8.276-6.508,14.985-14.542,14.985c-8.032,0-14.542-6.709-14.542-14.985
			c0-8.279,6.51-14.986,14.542-14.986C92.814,62.054,99.322,68.761,99.322,77.04z"/>
		<path class="st22" d="M90.696,81.204c0,5.977-3.974,10.821-8.88,10.821H20.124c-4.904,0-8.88-4.845-8.88-10.821V66.862
			c0-5.979,3.976-10.823,8.88-10.823h61.692c4.906,0,8.88,4.845,8.88,10.823V81.204z"/>
	</g>
	<path class="st7" d="M48.264,55.848c0,1.942-1.18,3.514-2.636,3.514c-1.452,0-2.637-1.571-2.637-3.514
		c0-1.939,1.185-3.516,2.637-3.516C47.084,52.332,48.264,53.908,48.264,55.848z"/>
	<path class="st7" d="M58.306,55.848c0,1.942-1.18,3.514-2.637,3.514c-1.451,0-2.636-1.571-2.636-3.514
		c0-1.939,1.185-3.516,2.636-3.516C57.126,52.332,58.306,53.908,58.306,55.848z"/>
	<path class="st12" d="M45.803,63.707c0,3.957-3.206,7.158-7.16,7.158c-3.954,0-7.162-3.201-7.162-7.158
		c0-3.953,3.208-7.16,7.162-7.16C42.598,56.547,45.803,59.754,45.803,63.707z"/>
	<path class="st12" d="M69.991,63.007c0,3.957-3.206,7.158-7.157,7.158c-3.954,0-7.164-3.201-7.164-7.158
		c0-3.953,3.21-7.16,7.164-7.16C66.785,55.847,69.991,59.054,69.991,63.007z"/>
	<path class="st26" d="M43.269,61.4c0,0,0.24,6.576,7.556,6.676c4.264,0.06,7.782-3.311,7.918-6.676"/>
</g>
<g id="_x30_4d">
	<g>
		<circle class="st27" cx="28.209" cy="61.394" r="13.867"/>
		<circle class="st27" cx="36.561" cy="42.289" r="13.866"/>
		<path class="st27" d="M73.065,37.104c0,7.661-6.208,13.864-13.866,13.864s-13.867-6.203-13.867-13.864
			c0-7.657,6.208-13.866,13.867-13.866S73.065,29.447,73.065,37.104z"/>
		<path class="st27" d="M92.1,44.989c0,7.66-6.207,13.865-13.867,13.865c-7.657,0-13.866-6.205-13.866-13.865
			c0-7.655,6.209-13.864,13.866-13.864C85.893,31.125,92.1,37.334,92.1,44.989z"/>
		<path class="st27" d="M99.635,62.171c0,7.23-5.685,13.092-12.704,13.092c-7.016,0-12.702-5.861-12.702-13.092
			c0-7.232,5.687-13.09,12.702-13.09C93.95,49.081,99.635,54.938,99.635,62.171z"/>
		<path class="st27" d="M92.1,65.81c0,5.221-3.471,9.453-7.757,9.453H30.452c-4.285,0-7.757-4.232-7.757-9.453V53.281
			c0-5.223,3.473-9.456,7.757-9.456h53.891c4.286,0,7.757,4.233,7.757,9.456V65.81z"/>
	</g>
	<g>
		<path class="st17" d="M32.114,76.321c0,8.771-7.107,15.875-15.875,15.875c-8.767,0-15.874-7.104-15.874-15.875
			c0-8.769,7.107-15.873,15.874-15.873C25.007,60.448,32.114,67.553,32.114,76.321z"/>
		<path class="st17" d="M41.674,54.45c0,8.771-7.107,15.874-15.874,15.874c-8.767,0-15.874-7.104-15.874-15.874
			c0-8.766,7.107-15.874,15.874-15.874C34.567,38.577,41.674,45.685,41.674,54.45z"/>
		<path class="st17" d="M67.59,48.515c0,8.771-7.107,15.87-15.874,15.87c-8.768,0-15.874-7.1-15.874-15.87
			c0-8.765,7.106-15.873,15.874-15.873C60.482,32.642,67.59,39.75,67.59,48.515z"/>
		<path class="st17" d="M89.379,57.541c0,8.77-7.106,15.872-15.873,15.872c-8.768,0-15.874-7.103-15.874-15.872
			c0-8.763,7.106-15.871,15.874-15.871C82.272,41.67,89.379,48.778,89.379,57.541z"/>
		<path class="st17" d="M98.005,77.211c0,8.276-6.508,14.985-14.542,14.985c-8.032,0-14.542-6.709-14.542-14.985
			c0-8.279,6.51-14.986,14.542-14.986C91.497,62.225,98.005,68.932,98.005,77.211z"/>
		<path class="st17" d="M89.379,81.375c0,5.977-3.974,10.821-8.88,10.821H18.807c-4.904,0-8.88-4.845-8.88-10.821V67.033
			c0-5.979,3.976-10.823,8.88-10.823h61.692c4.906,0,8.88,4.845,8.88,10.823V81.375z"/>
	</g>
	<path class="st13" d="M46.947,56.019c0,1.942-1.18,3.514-2.636,3.514c-1.452,0-2.637-1.571-2.637-3.514
		c0-1.939,1.185-3.516,2.637-3.516C45.767,52.503,46.947,54.079,46.947,56.019z"/>
	<path class="st13" d="M56.988,56.019c0,1.942-1.18,3.514-2.637,3.514c-1.451,0-2.636-1.571-2.636-3.514
		c0-1.939,1.185-3.516,2.636-3.516C55.809,52.503,56.988,54.079,56.988,56.019z"/>
	<path class="st9" d="M44.486,63.878c0,3.957-3.206,7.158-7.16,7.158c-3.954,0-7.162-3.201-7.162-7.158
		c0-3.953,3.208-7.16,7.162-7.16C41.28,56.718,44.486,59.925,44.486,63.878z"/>
	<path class="st9" d="M68.674,63.178c0,3.957-3.206,7.158-7.157,7.158c-3.954,0-7.164-3.201-7.164-7.158
		c0-3.953,3.21-7.16,7.164-7.16C65.468,56.018,68.674,59.225,68.674,63.178z"/>
	<line class="st16" x1="56.167" y1="63.177" x2="43.167" y2="63.177"/>
</g>
<g id="Layer_13" class="st25">
	<g class="st20">
		<circle class="st27" cx="28.133" cy="39.889" r="13.867"/>
		<circle class="st27" cx="36.485" cy="20.784" r="13.866"/>
		<path class="st27" d="M72.989,15.599c0,7.661-6.208,13.864-13.866,13.864S45.256,23.26,45.256,15.599
			c0-7.657,6.208-13.866,13.867-13.866S72.989,7.942,72.989,15.599z"/>
		<path class="st27" d="M92.023,23.484c0,7.66-6.207,13.865-13.867,13.865c-7.657,0-13.866-6.205-13.866-13.865
			c0-7.655,6.209-13.864,13.866-13.864C85.816,9.621,92.023,15.83,92.023,23.484z"/>
		<path class="st27" d="M99.559,40.666c0,7.23-5.685,13.092-12.704,13.092c-7.016,0-12.702-5.861-12.702-13.092
			c0-7.232,5.687-13.09,12.702-13.09C93.874,27.576,99.559,33.434,99.559,40.666z"/>
		<path class="st27" d="M92.023,44.305c0,5.221-3.471,9.453-7.757,9.453H30.376c-4.285,0-7.757-4.232-7.757-9.453V31.776
			c0-5.223,3.473-9.456,7.757-9.456h53.891c4.286,0,7.757,4.233,7.757,9.456V44.305z"/>
	</g>
	<g class="st20">
		<path class="st22" d="M32.038,54.816c0,8.771-7.107,15.875-15.875,15.875c-8.767,0-15.874-7.104-15.874-15.875
			c0-8.769,7.107-15.873,15.874-15.873C24.931,38.943,32.038,46.048,32.038,54.816z"/>
		<path class="st22" d="M41.598,32.945c0,8.771-7.107,15.874-15.874,15.874c-8.767,0-15.874-7.104-15.874-15.874
			c0-8.766,7.107-15.874,15.874-15.874C34.491,17.072,41.598,24.18,41.598,32.945z"/>
		<path class="st22" d="M67.514,27.01c0,8.771-7.107,15.87-15.874,15.87c-8.768,0-15.874-7.1-15.874-15.87
			c0-8.765,7.106-15.873,15.874-15.873C60.406,11.137,67.514,18.245,67.514,27.01z"/>
		<path class="st22" d="M89.303,36.036c0,8.77-7.106,15.872-15.873,15.872c-8.768,0-15.874-7.103-15.874-15.872
			c0-8.763,7.106-15.871,15.874-15.871C82.196,20.166,89.303,27.273,89.303,36.036z"/>
		<path class="st22" d="M97.929,55.706c0,8.276-6.508,14.985-14.542,14.985c-8.032,0-14.542-6.709-14.542-14.985
			c0-8.279,6.51-14.986,14.542-14.986C91.421,40.72,97.929,47.427,97.929,55.706z"/>
		<path class="st22" d="M89.303,59.87c0,5.977-3.974,10.821-8.88,10.821H18.73c-4.904,0-8.88-4.845-8.88-10.821V45.528
			c0-5.979,3.976-10.823,8.88-10.823h61.692c4.906,0,8.88,4.845,8.88,10.823V59.87z"/>
	</g>
	<path class="st7" d="M46.871,34.514c0,1.942-1.18,3.514-2.636,3.514c-1.452,0-2.637-1.571-2.637-3.514
		c0-1.939,1.185-3.516,2.637-3.516C45.69,30.998,46.871,32.574,46.871,34.514z"/>
	<path class="st7" d="M56.912,34.514c0,1.942-1.18,3.514-2.637,3.514c-1.451,0-2.636-1.571-2.636-3.514
		c0-1.939,1.185-3.516,2.636-3.516C55.732,30.998,56.912,32.574,56.912,34.514z"/>
	<path class="st12" d="M44.41,42.373c0,3.957-3.206,7.158-7.16,7.158c-3.954,0-7.162-3.201-7.162-7.158
		c0-3.953,3.208-7.16,7.162-7.16C41.204,35.213,44.41,38.42,44.41,42.373z"/>
	<path class="st12" d="M68.598,41.673c0,3.957-3.206,7.158-7.157,7.158c-3.954,0-7.164-3.201-7.164-7.158
		c0-3.953,3.21-7.16,7.164-7.16C65.392,34.513,68.598,37.72,68.598,41.673z"/>
	<path class="st6" d="M23.833,72.912c0,3.613-1.701,6.537-3.802,6.537c-2.1,0-3.802-2.924-3.802-6.537
		c0-3.614,3.802-6.537,3.802-6.537S23.833,69.298,23.833,72.912z"/>
	<path class="st6" d="M38.632,68.776c0,3.613-1.702,6.537-3.802,6.537s-3.802-2.924-3.802-6.537s3.802-6.537,3.802-6.537
		S38.632,65.163,38.632,68.776z"/>
	<path class="st6" d="M31.437,88.076c0,3.613-1.702,6.537-3.802,6.537s-3.802-2.924-3.802-6.537s3.802-6.537,3.802-6.537
		S31.437,84.463,31.437,88.076z"/>
	<path class="st6" d="M45.87,85.986c0,3.614-1.702,6.543-3.802,6.543c-2.1,0-3.801-2.929-3.801-6.543
		c0-3.607,3.801-6.537,3.801-6.537S45.87,82.379,45.87,85.986z"/>
	<path class="st6" d="M62.057,88.076c0,3.613-1.702,6.537-3.801,6.537c-2.1,0-3.802-2.924-3.802-6.537s3.802-6.537,3.802-6.537
		S62.057,84.463,62.057,88.076z"/>
	<path class="st6" d="M74.442,85.986c0,3.614-1.702,6.543-3.802,6.543s-3.802-2.929-3.802-6.543c0-3.607,3.802-6.537,3.802-6.537
		S74.442,82.379,74.442,85.986z"/>
	<path class="st6" d="M53.765,70.387c0,3.612-1.702,6.537-3.803,6.537c-2.1,0-3.801-2.925-3.801-6.537
		c0-3.613,3.801-6.537,3.801-6.537S53.765,66.773,53.765,70.387z"/>
	<path class="st6" d="M69.354,68.776c0,3.613-1.702,6.537-3.803,6.537s-3.801-2.924-3.801-6.537s3.801-6.537,3.801-6.537
		S69.354,65.163,69.354,68.776z"/>
	<path class="st6" d="M84.474,71.759c0,3.614-1.702,6.544-3.803,6.544c-2.098,0-3.8-2.93-3.8-6.544c0-3.607,3.8-6.537,3.8-6.537
		S84.474,68.151,84.474,71.759z"/>
	<path class="st5" d="M42.765,43.298c2.474-3.857,11-4.354,13.623-0.418"/>
</g>
<g id="Layer_6" class="st25">
	<circle class="st4" cx="63.323" cy="33.826" r="13.128"/>
	<polygon class="st4" points="49.36,37.065 50.389,39.152 52.691,39.486 51.025,41.11 51.418,43.403 49.36,42.321 47.3,43.403 
		47.694,41.11 46.028,39.486 48.33,39.152 	"/>
	<polygon class="st4" points="43.716,30.781 44.302,33.821 47.139,35.063 44.427,36.56 44.123,39.641 41.862,37.525 38.837,38.188 
		40.151,35.384 38.585,32.712 41.658,33.095 	"/>
	<polygon class="st4" points="36.832,38.033 37.786,39.967 39.92,40.277 38.376,41.782 38.74,43.908 36.832,42.904 34.923,43.908 
		35.287,41.782 33.743,40.277 35.877,39.967 	"/>
</g>
<g id="Layer_5" class="st25">
	<g class="st20">
		<circle class="st15" cx="20.263" cy="47.772" r="14.971"/>
		<circle class="st15" cx="29.279" cy="27.148" r="14.971"/>
		<path class="st15" d="M68.688,21.55c0,8.269-6.699,14.966-14.972,14.966c-8.267,0-14.968-6.697-14.968-14.966
			c0-8.268,6.701-14.971,14.968-14.971C61.989,6.58,68.688,13.283,68.688,21.55z"/>
		<path class="st15" d="M89.24,30.063c0,8.269-6.704,14.967-14.972,14.967c-8.27,0-14.969-6.698-14.969-14.967
			c0-8.267,6.699-14.968,14.969-14.968C82.536,15.095,89.24,21.797,89.24,30.063z"/>
		<ellipse class="st15" cx="83.659" cy="48.61" rx="13.715" ry="14.132"/>
		<path class="st15" d="M89.24,52.533c0,5.639-3.748,10.209-8.375,10.209H22.684c-4.625,0-8.375-4.57-8.375-10.209V39.012
			c0-5.637,3.75-10.206,8.375-10.206h58.182c4.627,0,8.375,4.569,8.375,10.206V52.533z"/>
	</g>
	<path class="st7" d="M49.223,32.802c0,1.832-1.113,3.314-2.485,3.314c-1.37,0-2.487-1.482-2.487-3.314
		c0-1.828,1.117-3.313,2.487-3.313C48.109,29.489,49.223,30.974,49.223,32.802z"/>
	<path class="st7" d="M58.691,32.802c0,1.832-1.113,3.314-2.488,3.314c-1.366,0-2.486-1.482-2.486-3.314
		c0-1.828,1.12-3.313,2.486-3.313C57.578,29.489,58.691,30.974,58.691,32.802z"/>
	<path class="st1" d="M45.503,40.216c0,3.732-3.023,6.753-6.752,6.753s-6.755-3.021-6.755-6.753c0-3.729,3.026-6.752,6.755-6.752
		S45.503,36.487,45.503,40.216z"/>
	<path class="st1" d="M70.558,40.217c0,3.733-3.025,6.754-6.754,6.754c-3.725,0-6.752-3.021-6.752-6.754
		c0-3.73,3.027-6.753,6.752-6.753C67.532,33.464,70.558,36.487,70.558,40.217z"/>
	<path class="st23" d="M43.555,41.135c4.067-4.352,10.879-4.581,15.231-0.514"/>
</g>
<g id="Layer_9" class="st25">
	<path class="st3" d="M84.143,70.383c0,1.471-1.587,2.666-3.542,2.666H28.466c-1.956,0-3.542-1.195-3.542-2.666l0,0
		c0-1.473,1.586-2.666,3.542-2.666h52.134C82.556,67.717,84.143,68.91,84.143,70.383L84.143,70.383z"/>
	<path class="st3" d="M73.906,78c0,1.471-1.586,2.664-3.542,2.664H18.23c-1.956,0-3.541-1.193-3.541-2.664l0,0
		c0-1.473,1.585-2.668,3.541-2.668h52.134C72.32,75.332,73.906,76.527,73.906,78L73.906,78z"/>
	<path class="st3" d="M88.743,85.617c0,1.469-1.586,2.664-3.542,2.664H33.067c-1.956,0-3.542-1.195-3.542-2.664l0,0
		c0-1.473,1.586-2.668,3.542-2.668h52.134C87.157,82.949,88.743,84.145,88.743,85.617L88.743,85.617z"/>
</g>
<g id="Layer_8" class="st25">
	<polygon class="st24" points="37.5,59.164 41.311,59.164 40.057,66.33 43.532,66.33 40.563,71.664 40.079,66.997 36.084,67 	"/>
	<polygon class="st24" points="46.978,56.497 50.229,56.497 49.159,62.611 52.125,62.611 49.591,67.163 49.178,63.181 
		45.769,63.184 	"/>
	<polygon class="st24" points="56.141,59.164 59.392,59.164 58.322,65.278 61.287,65.278 58.754,69.83 58.341,65.848 54.932,65.851 
			"/>
</g>
<g id="Layer_7" class="st25">
	<path class="st6" d="M38.769,65.361c0,1.311-0.617,2.371-1.379,2.371s-1.379-1.061-1.379-2.371s1.379-2.371,1.379-2.371
		S38.769,64.051,38.769,65.361z"/>
	<path class="st6" d="M44.137,63.861c0,1.311-0.617,2.371-1.379,2.371s-1.379-1.061-1.379-2.371s1.379-2.371,1.379-2.371
		S44.137,62.551,44.137,63.861z"/>
	<path class="st6" d="M41.527,70.861c0,1.311-0.617,2.371-1.379,2.371s-1.379-1.061-1.379-2.371s1.379-2.371,1.379-2.371
		S41.527,69.551,41.527,70.861z"/>
	<path class="st6" d="M46.762,70.104c0,1.311-0.617,2.373-1.379,2.373s-1.379-1.063-1.379-2.373c0-1.309,1.379-2.371,1.379-2.371
		S46.762,68.795,46.762,70.104z"/>
	<path class="st6" d="M52.633,70.861c0,1.311-0.617,2.371-1.379,2.371c-0.761,0-1.378-1.061-1.378-2.371s1.378-2.371,1.378-2.371
		S52.633,69.551,52.633,70.861z"/>
	<path class="st6" d="M57.125,70.104c0,1.311-0.617,2.373-1.379,2.373s-1.379-1.063-1.379-2.373c0-1.309,1.379-2.371,1.379-2.371
		S57.125,68.795,57.125,70.104z"/>
	<path class="st6" d="M49.625,64.445c0,1.311-0.617,2.371-1.379,2.371s-1.379-1.061-1.379-2.371s1.379-2.371,1.379-2.371
		S49.625,63.135,49.625,64.445z"/>
	<path class="st6" d="M55.279,63.861c0,1.311-0.617,2.371-1.379,2.371s-1.379-1.061-1.379-2.371S53.9,61.49,53.9,61.49
		S55.279,62.551,55.279,63.861z"/>
	<path class="st6" d="M60.764,64.943c0,1.311-0.617,2.373-1.379,2.373s-1.379-1.063-1.379-2.373c0-1.309,1.379-2.371,1.379-2.371
		S60.764,63.635,60.764,64.943z"/>
</g>
<g id="Layer_2" class="st25">
	<g class="st20">
		<path class="st22" d="M34.505,47.457c0,7.918-6.417,14.333-14.332,14.333c-7.915,0-14.331-6.414-14.331-14.333
			c0-7.916,6.417-14.329,14.331-14.329C28.089,33.127,34.505,39.541,34.505,47.457z"/>
		<circle class="st22" cx="28.805" cy="27.712" r="14.331"/>
		<path class="st22" d="M66.533,22.354c0,7.918-6.417,14.328-14.332,14.328c-7.916,0-14.331-6.41-14.331-14.328
			c0-7.913,6.415-14.33,14.331-14.33C60.116,8.023,66.533,14.44,66.533,22.354z"/>
		<path class="st22" d="M86.204,30.503c0,7.917-6.415,14.329-14.33,14.329c-7.916,0-14.331-6.412-14.331-14.329
			c0-7.911,6.415-14.328,14.331-14.328C79.789,16.175,86.204,22.592,86.204,30.503z"/>
		<ellipse class="st22" cx="80.863" cy="48.259" rx="13.128" ry="13.53"/>
		<path class="st22" d="M86.204,52.02c0,5.395-3.588,9.77-8.017,9.77H22.491c-4.428,0-8.017-4.375-8.017-9.77V39.072
			c0-5.396,3.589-9.771,8.017-9.771h55.696c4.429,0,8.017,4.375,8.017,9.771V52.02z"/>
	</g>
	<path class="st7" d="M47.896,33.127c0,1.754-1.065,3.172-2.38,3.172c-1.311,0-2.38-1.418-2.38-3.172c0-1.75,1.07-3.173,2.38-3.173
		C46.831,29.955,47.896,31.377,47.896,33.127z"/>
	<path class="st7" d="M56.962,33.127c0,1.754-1.065,3.172-2.381,3.172c-1.31,0-2.38-1.418-2.38-3.172c0-1.75,1.07-3.173,2.38-3.173
		C55.896,29.955,56.962,31.377,56.962,33.127z"/>
	<path class="st12" d="M44.335,40.224c0,3.572-2.894,6.462-6.464,6.462c-3.569,0-6.466-2.89-6.466-6.462
		c0-3.57,2.897-6.464,6.466-6.464C41.441,33.76,44.335,36.654,44.335,40.224z"/>
	<path class="st12" d="M68.319,40.224c0,3.572-2.895,6.462-6.463,6.462s-6.466-2.89-6.466-6.462c0-3.57,2.897-6.464,6.466-6.464
		S68.319,36.654,68.319,40.224z"/>
	<path class="st23" d="M41.707,39.018h18.647c0,0-2.806,6.949-9.323,7.083C51.03,46.101,41.707,45.298,41.707,39.018z"/>
</g>
<g id="Layer_4" class="st25">
	<g class="st20">
		<rect x="41.231" y="54.227" class="st19" width="0.449" height="4.466"/>
		
			<rect x="40.421" y="54.668" transform="matrix(0.7153 -0.6988 0.6988 0.7153 -27.5057 44.2993)" class="st19" width="0.386" height="2.477"/>
		
			<rect x="42.042" y="54.668" transform="matrix(-0.7159 -0.6982 0.6982 -0.7159 33.4374 125.4181)" class="st19" width="0.386" height="2.476"/>
		
			<rect x="39.41" y="55.058" transform="matrix(0.5002 -0.8659 0.8659 0.5002 -29.7992 62.9529)" class="st19" width="0.45" height="4.466"/>
		
			<rect x="38.543" y="56.505" transform="matrix(-0.2485 -0.9686 0.9686 -0.2485 -7.5714 109.6131)" class="st19" width="0.385" height="2.477"/>
		
			<rect x="39.352" y="55.102" transform="matrix(-0.9628 0.2701 -0.2701 -0.9628 92.8373 99.908)" class="st19" width="0.387" height="2.477"/>
		
			<rect x="39.216" y="57.291" transform="matrix(-0.4986 -0.8668 0.8668 -0.4986 7.5085 123.39)" class="st19" width="0.45" height="4.465"/>
		
			<rect x="39.16" y="59.291" transform="matrix(-0.9633 -0.2684 0.2684 -0.9633 61.0183 129.399)" class="st19" width="0.386" height="2.477"/>
		
			<rect x="38.349" y="57.887" transform="matrix(-0.2491 0.9685 -0.9685 -0.2491 105.4045 36.5244)" class="st19" width="0.386" height="2.477"/>
		<rect x="41.261" y="58.602" class="st19" width="0.449" height="4.465"/>
		
			<rect x="42.042" y="60.238" transform="matrix(-0.7153 0.6988 -0.6988 -0.7153 115.4065 75.936)" class="st19" width="0.386" height="2.477"/>
		
			<rect x="40.422" y="60.238" transform="matrix(0.7165 0.6976 -0.6976 0.7165 54.3976 -10.9046)" class="st19" width="0.386" height="2.476"/>
		
			<rect x="43.307" y="57.278" transform="matrix(-0.5029 0.8643 -0.8643 -0.5029 116.8611 51.8137)" class="st19" width="0.449" height="4.465"/>
		
			<rect x="44.24" y="57.818" transform="matrix(0.2491 0.9685 -0.9685 0.2491 90.5587 1.3145)" class="st19" width="0.384" height="2.477"/>
		
			<rect x="43.428" y="59.223" transform="matrix(0.9628 -0.2704 0.2704 0.9628 -14.7227 14.0463)" class="st19" width="0.386" height="2.476"/>
		
			<rect x="43.3" y="54.911" transform="matrix(0.4978 0.8673 -0.8673 0.4978 71.4204 -9.0501)" class="st19" width="0.449" height="4.466"/>
		
			<rect x="43.39" y="54.899" transform="matrix(0.9631 0.269 -0.269 0.9631 16.7087 -9.655)" class="st19" width="0.385" height="2.477"/>
		
			<rect x="44.2" y="56.303" transform="matrix(0.2485 -0.9686 0.9686 0.2485 -22.3735 86.2452)" class="st19" width="0.387" height="2.477"/>
	</g>
	<g class="st20">
		<rect x="51.631" y="62.163" class="st19" width="0.318" height="3.172"/>
		
			<rect x="51.055" y="62.476" transform="matrix(0.7142 -0.6999 0.6999 0.7142 -29.7147 53.9368)" class="st19" width="0.273" height="1.76"/>
		
			<rect x="52.207" y="62.476" transform="matrix(-0.7142 -0.6999 0.6999 -0.7142 45.3837 145.2425)" class="st19" width="0.273" height="1.76"/>
		
			<rect x="50.337" y="62.753" transform="matrix(0.4978 -0.8673 0.8673 0.4978 -30.4411 76.1086)" class="st19" width="0.32" height="3.172"/>
		
			<rect x="49.721" y="63.781" transform="matrix(-0.2484 -0.9687 0.9687 -0.2484 -0.391 129.0189)" class="st19" width="0.273" height="1.76"/>
		
			<rect x="50.296" y="62.785" transform="matrix(-0.9629 0.27 -0.27 -0.9629 116.1842 111.3449)" class="st19" width="0.275" height="1.759"/>
		
			<rect x="50.199" y="64.34" transform="matrix(-0.4978 -0.8673 0.8673 -0.4978 18.2496 142.4172)" class="st19" width="0.32" height="3.171"/>
		
			<rect x="50.16" y="65.76" transform="matrix(-0.9635 -0.2676 0.2676 -0.9635 80.9222 144.3097)" class="st19" width="0.274" height="1.76"/>
		
			<rect x="49.583" y="64.763" transform="matrix(-0.2492 0.9684 -0.9684 -0.2492 125.6835 33.8513)" class="st19" width="0.274" height="1.759"/>
		<rect x="51.652" y="65.271" class="st19" width="0.318" height="3.171"/>
		
			<rect x="52.207" y="66.433" transform="matrix(-0.7142 0.6999 -0.6999 -0.7142 136.8426 78.7519)" class="st19" width="0.273" height="1.76"/>
		
			<rect x="51.056" y="66.433" transform="matrix(0.7177 0.6964 -0.6964 0.7177 61.3268 -16.6459)" class="st19" width="0.275" height="1.759"/>
		
			<rect x="53.105" y="64.33" transform="matrix(-0.5027 0.8644 -0.8644 -0.5027 137.023 53.0094)" class="st19" width="0.319" height="3.173"/>
		
			<rect x="53.768" y="64.714" transform="matrix(0.251 0.968 -0.968 0.251 103.8709 -3.047)" class="st19" width="0.272" height="1.76"/>
		
			<rect x="53.191" y="65.712" transform="matrix(0.9626 -0.271 0.271 0.9626 -16.0481 16.9403)" class="st19" width="0.274" height="1.759"/>
		
			<rect x="53.1" y="62.649" transform="matrix(0.4968 0.8679 -0.8679 0.4968 82.5471 -13.8984)" class="st19" width="0.318" height="3.171"/>
		
			<rect x="53.164" y="62.641" transform="matrix(0.9626 0.271 -0.271 0.9626 19.2048 -12.0658)" class="st19" width="0.274" height="1.759"/>
		
			<rect x="53.738" y="63.638" transform="matrix(0.2484 -0.9687 0.9687 0.2484 -22.0009 100.6803)" class="st19" width="0.275" height="1.758"/>
	</g>
	<g class="st20">
		<rect x="37.138" y="63.573" class="st19" width="0.276" height="2.738"/>
		
			<rect x="36.641" y="63.843" transform="matrix(0.7133 -0.7009 0.7009 0.7133 -34.7396 44.2888)" class="st19" width="0.237" height="1.519"/>
		
			<rect x="37.635" y="63.844" transform="matrix(-0.7143 -0.6999 0.6999 -0.7143 19.5063 137.1696)" class="st19" width="0.237" height="1.519"/>
		
			<rect x="36.022" y="64.083" transform="matrix(0.4988 -0.8667 0.8667 0.4988 -38.6051 64.1447)" class="st19" width="0.276" height="2.739"/>
		
			<rect x="35.49" y="64.97" transform="matrix(-0.2484 -0.9687 0.9687 -0.2484 -19.2177 116.5472)" class="st19" width="0.236" height="1.519"/>
		
			<rect x="35.986" y="64.11" transform="matrix(-0.9635 0.2676 -0.2676 -0.9635 88.2546 117.7084)" class="st19" width="0.237" height="1.518"/>
		
			<rect x="35.903" y="65.452" transform="matrix(-0.4988 -0.8667 0.8667 -0.4988 -3.8969 131.3881)" class="st19" width="0.276" height="2.737"/>
		
			<rect x="35.869" y="66.678" transform="matrix(-0.9632 -0.2687 0.2687 -0.9632 52.5288 142.0657)" class="st19" width="0.236" height="1.519"/>
		
			<rect x="35.371" y="65.818" transform="matrix(-0.2493 0.9684 -0.9684 -0.2493 108.8124 48.8072)" class="st19" width="0.237" height="1.519"/>
		<rect x="37.156" y="66.256" class="st19" width="0.275" height="2.737"/>
		
			<rect x="37.635" y="67.26" transform="matrix(-0.7163 0.6978 -0.6978 -0.7163 112.2582 90.4008)" class="st19" width="0.237" height="1.518"/>
		
			<rect x="36.642" y="67.26" transform="matrix(0.7173 0.6967 -0.6967 0.7173 57.7814 -6.3856)" class="st19" width="0.237" height="1.518"/>
		
			<rect x="38.412" y="65.444" transform="matrix(-0.5032 0.8642 -0.8642 -0.5032 115.6847 67.121)" class="st19" width="0.275" height="2.738"/>
		
			<rect x="38.983" y="65.776" transform="matrix(0.2494 0.9684 -0.9684 0.2494 93.783 12.0777)" class="st19" width="0.235" height="1.519"/>
		
			<rect x="38.486" y="66.637" transform="matrix(0.9623 -0.272 0.272 0.9623 -16.876 13.0412)" class="st19" width="0.237" height="1.517"/>
		
			<rect x="38.407" y="63.993" transform="matrix(0.4988 0.8667 -0.8667 0.4988 75.9685 -0.6481)" class="st19" width="0.276" height="2.738"/>
		
			<rect x="38.462" y="63.986" transform="matrix(0.9632 0.2687 -0.2687 0.9632 18.8166 -7.9857)" class="st19" width="0.236" height="1.518"/>
		
			<rect x="38.959" y="64.846" transform="matrix(0.2493 -0.9684 0.9684 0.2493 -34.1992 87.0921)" class="st19" width="0.237" height="1.518"/>
	</g>
	<g class="st20">
		<rect x="57.637" y="54.262" class="st19" width="0.283" height="2.813"/>
		
			<rect x="57.127" y="54.539" transform="matrix(0.7151 -0.699 0.699 0.7151 -22.3598 55.7787)" class="st19" width="0.243" height="1.561"/>
		
			<rect x="58.148" y="54.539" transform="matrix(-0.7151 -0.699 0.699 -0.7151 61.2678 135.6107)" class="st19" width="0.243" height="1.561"/>
		
			<rect x="56.49" y="54.785" transform="matrix(0.4976 -0.8674 0.8674 0.4976 -20.291 77.3507)" class="st19" width="0.283" height="2.815"/>
		
			<rect x="55.943" y="55.697" transform="matrix(-0.2491 -0.9685 0.9685 -0.2491 15.3363 124.8453)" class="st19" width="0.243" height="1.562"/>
		
			<rect x="56.452" y="54.814" transform="matrix(-0.9627 0.2705 -0.2705 -0.9627 126.08 93.8103)" class="st19" width="0.245" height="1.56"/>
		
			<rect x="56.367" y="56.193" transform="matrix(-0.4976 -0.8674 0.8674 -0.4976 34.6681 135.2772)" class="st19" width="0.283" height="2.812"/>
		
			<rect x="56.331" y="57.453" transform="matrix(-0.9632 -0.2689 0.2689 -0.9632 95.1692 129.5007)" class="st19" width="0.243" height="1.56"/>
		
			<rect x="55.821" y="56.568" transform="matrix(-0.2491 0.9685 -0.9685 -0.2491 125.42 17.4581)" class="st19" width="0.243" height="1.56"/>
		<rect x="57.656" y="57.018" class="st19" width="0.283" height="2.813"/>
		
			<rect x="58.147" y="58.05" transform="matrix(-0.7151 0.699 -0.699 -0.7151 141.0599 60.168)" class="st19" width="0.243" height="1.561"/>
		
			<rect x="57.127" y="58.05" transform="matrix(0.7151 0.699 -0.699 0.7151 57.4339 -23.2578)" class="st19" width="0.243" height="1.56"/>
		
			<rect x="58.945" y="56.185" transform="matrix(-0.5043 0.8635 -0.8635 -0.5043 138.6143 35.6115)" class="st19" width="0.283" height="2.812"/>
		
			<rect x="59.532" y="56.525" transform="matrix(0.2501 0.9682 -0.9682 0.2501 100.2164 -14.7853)" class="st19" width="0.242" height="1.56"/>
		
			<rect x="59.021" y="57.41" transform="matrix(0.9637 -0.2668 0.2668 0.9637 -13.3822 17.8904)" class="st19" width="0.245" height="1.56"/>
		
			<rect x="58.941" y="54.692" transform="matrix(0.4976 0.8674 -0.8674 0.4976 78.3415 -23.0643)" class="st19" width="0.283" height="2.815"/>
		
			<rect x="58.997" y="54.685" transform="matrix(0.9626 0.271 -0.271 0.9626 17.242 -13.9446)" class="st19" width="0.241" height="1.561"/>
		
			<rect x="59.508" y="55.57" transform="matrix(0.2482 -0.9687 0.9687 0.2482 -9.7563 100.1292)" class="st19" width="0.244" height="1.56"/>
	</g>
	<g class="st20">
		<rect x="62.369" y="61.973" class="st19" width="0.186" height="1.771"/>
		<polygon class="st19" points="62.527,62.937 62.414,63.044 61.701,62.341 61.814,62.234 		"/>
		<polygon class="st19" points="62.369,62.937 62.482,63.044 63.195,62.341 63.082,62.234 		"/>
		<polygon class="st19" points="62.555,63.555 62.461,63.709 60.869,62.822 60.961,62.669 		"/>
		<polygon class="st19" points="61.814,63.173 61.855,63.32 60.865,63.563 60.826,63.416 		"/>
		<polygon class="st19" points="61.736,63.306 61.889,63.264 61.613,62.317 61.461,62.358 		"/>
		<polygon class="st19" points="62.381,63.555 62.473,63.709 60.881,64.595 60.787,64.439 		"/>
		<polygon class="st19" points="61.656,63.979 61.809,64.021 61.533,64.967 61.381,64.926 		"/>
		
			<rect x="61.185" y="63.408" transform="matrix(-0.2545 0.9671 -0.9671 -0.2545 138.6644 20.9382)" class="st19" width="0.153" height="1.018"/>
		<rect x="62.381" y="63.708" class="st19" width="0.186" height="1.771"/>
		<polygon class="st19" points="62.369,64.551 62.482,64.444 63.195,65.147 63.082,65.254 		"/>
		<polygon class="st19" points="62.529,64.551 62.414,64.444 61.701,65.147 61.814,65.254 		"/>
		<polygon class="st19" points="62.473,63.703 62.566,63.55 64.16,64.435 64.066,64.59 		"/>
		<polygon class="st19" points="63.213,64.085 63.172,63.937 64.162,63.694 64.201,63.842 		"/>
		<polygon class="st19" points="63.293,63.953 63.139,63.994 63.414,64.939 63.568,64.898 		"/>
		<polygon class="st19" points="62.563,63.65 62.471,63.496 64.064,62.609 64.156,62.765 		"/>
		<polygon class="st19" points="63.275,63.225 63.123,63.184 63.398,62.237 63.551,62.279 		"/>
		
			<rect x="63.595" y="62.779" transform="matrix(0.2529 -0.9675 0.9675 0.2529 -13.6627 108.8813)" class="st19" width="0.154" height="1.018"/>
	</g>
</g>
<g id="Layer_3" class="st25">
	<path class="st2" d="M23.978,3.813C5.583,21.315,1.169,49.826,14.912,72.396c15.841,26.019,49.773,34.274,75.789,18.431
		c0.843-0.518,1.621-1.104,2.431-1.652c-0.467,0.318-3.432-0.719-4.058-0.844c-1.421-0.281-2.843-0.547-4.268-0.797
		c-2.777-0.488-5.567-0.904-8.345-1.383c-14.269-2.465-24.296-14.017-33.436-24.262C29.463,46.685,23.991,24.897,23.978,3.813z"/>
	<polygon class="st0" points="49.272,25.026 52.242,31.041 58.881,32.005 54.078,36.687 55.211,43.298 49.272,40.176 43.336,43.298 
		44.471,36.687 39.667,32.005 46.305,31.041 	"/>
	<polygon class="st0" points="73.416,43.298 75.122,46.765 78.95,47.32 76.18,50.018 76.834,53.822 73.416,52.025 69.992,53.822 
		70.645,50.018 67.881,47.32 71.703,46.765 	"/>
	<polygon class="st0" points="59.605,56.225 61.938,60.941 67.142,61.694 63.373,65.368 64.264,70.554 59.605,68.102 54.953,70.554 
		55.84,65.368 52.072,61.694 57.28,60.941 	"/>
	<path class="st21" d="M12.593,19.298c0,0,11.154-0.014,12.269-1.125L23.978,3.813C23.978,3.813,13.776,12.93,12.593,19.298z"/>
	<circle class="st21" cx="24.31" cy="3.099" r="1.977"/>
	<polygon class="st14" points="24.224,7.797 20.038,7.723 21.056,6.652 24.155,6.684 	"/>
	<polygon class="st14" points="24.486,10.509 17.655,10.429 18.604,9.312 24.32,9.378 	"/>
	<polygon class="st14" points="24.583,13.637 14.956,14.063 15.75,12.897 24.514,12.509 	"/>
	<polygon class="st14" points="25.034,16.388 12.882,17.234 13.411,16.063 24.956,15.26 	"/>
	<path class="st10" d="M19.11,45.147c4.94,1.854,10.241-0.111,11.848-4.395"/>
	<path class="st7" d="M22.525,38.71c0,1.832-1.113,3.314-2.488,3.314c-1.366,0-2.486-1.482-2.486-3.314
		c0-1.828,1.12-3.313,2.486-3.313C21.412,35.398,22.525,36.882,22.525,38.71z"/>
	<polyline class="st10" points="27.981,32.828 24.861,37.252 29.632,37.967 	"/>
</g>
</svg>
